<?xml version="1.0" standalone="no"?>
<!DOCTYPE svg PUBLIC "-//W3C//DTD SVG 20010904//EN"
 "http://www.w3.org/TR/2001/REC-SVG-20010904/DTD/svg10.dtd">
<svg version="1.0" xmlns="http://www.w3.org/2000/svg"
 width="500.000000pt" height="500.000000pt" viewBox="0 0 500.000000 500.000000"
 preserveAspectRatio="xMidYMid meet">
<metadata>
Created by potrace 1.11, written by Peter Selinger 2001-2013
</metadata>
<g transform="translate(0.000000,500.000000) scale(0.100000,-0.100000)"
fill="#000000" stroke="none">
<path d="M2488 4916 c-1 -2 -55 -6 -118 -10 -150 -8 -221 -16 -280 -30 -14 -3
-36 -8 -50 -10 -262 -49 -564 -173 -815 -334 -276 -178 -519 -423 -704 -707
-184 -282 -326 -663 -367 -980 -3 -22 -8 -53 -11 -70 -10 -54 -12 -469 -3
-530 5 -33 15 -94 21 -135 32 -216 113 -467 222 -690 311 -634 879 -1094 1562
-1263 55 -14 123 -28 150 -33 28 -4 57 -9 65 -10 123 -27 556 -26 690 1 14 3
41 8 60 11 841 147 1551 764 1829 1589 96 285 128 491 129 822 0 122 2 225 5
230 3 4 8 41 12 81 4 40 10 98 15 130 11 82 5 443 -9 532 -33 206 -80 369
-142 492 -180 361 -466 542 -904 573 -49 3 -105 8 -123 10 -18 2 -95 35 -170
72 -131 66 -262 123 -282 123 -5 0 -21 5 -37 12 -15 6 -32 12 -38 14 -5 1 -35
10 -65 18 -65 19 -78 22 -150 37 -30 6 -62 14 -70 16 -8 3 -31 7 -50 9 -19 2
-51 6 -70 9 -19 3 -89 7 -155 11 -66 3 -125 7 -132 9 -6 2 -13 2 -15 1z m1422
-371 c112 -13 114 -13 215 -40 431 -113 696 -492 752 -1075 13 -135 6 -461
-12 -555 -2 -11 -4 -36 -5 -55 -2 -32 -3 -31 -11 15 -52 282 -84 402 -161 590
-142 345 -348 635 -649 911 -45 42 -234 181 -270 200 -54 27 -38 28 141 9z"/>
</g>
</svg>
